<?xml version="1.0" standalone="no"?>
<!DOCTYPE svg PUBLIC "-//W3C//DTD SVG 20010904//EN"
 "http://www.w3.org/TR/2001/REC-SVG-20010904/DTD/svg10.dtd">
<svg version="1.0" xmlns="http://www.w3.org/2000/svg"
 width="198.000000pt" height="198.000000pt" viewBox="0 0 198.000000 198.000000"
 preserveAspectRatio="xMidYMid meet">

<g transform="translate(0.000000,198.000000) scale(0.100000,-0.100000)"
fill="#000000" stroke="none">
<path d="M1627 1851 c-10 -74 -64 -118 -175 -142 -92 -19 -145 -85 -145 -180
0 -78 75 -136 161 -123 127 18 231 122 262 260 15 66 -7 137 -58 187 l-39 38
-6 -40z"/>
<path d="M269 1865 c-36 -19 -51 -57 -38 -95 13 -36 22 -38 42 -6 9 13 36 37
61 53 l45 30 -35 16 c-41 20 -42 20 -75 2z"/>
<path d="M371 1803 c-39 -19 -61 -38 -82 -71 -28 -44 -28 -46 -11 -72 9 -15
132 -164 272 -332 l254 -305 28 44 c16 25 47 69 68 99 l40 53 -249 300 c-137
164 -253 301 -258 304 -4 3 -32 -6 -62 -20z"/>
<path d="M1220 1448 c-158 -108 -311 -292 -456 -550 -23 -40 -148 -223 -278
-405 -130 -183 -236 -339 -236 -348 0 -8 6 -15 13 -15 6 -1 147 136 312 302
166 167 380 380 476 473 114 111 191 195 221 240 48 74 118 206 118 224 0 5
-17 19 -38 31 -22 12 -47 35 -56 51 -9 16 -20 29 -24 29 -4 0 -27 -15 -52 -32z"/>
<path d="M1073 879 l-81 -82 214 -257 c118 -142 221 -263 229 -270 21 -18 111
34 153 89 33 43 33 44 14 65 -11 11 -108 129 -217 261 -109 132 -205 248 -214
257 -15 17 -21 13 -98 -63z m299 -272 c107 -126 123 -158 96 -185 -30 -30 -55
-13 -157 108 -128 153 -128 152 -113 185 10 21 18 26 39 23 21 -2 52 -33 135
-131z"/>
<path d="M1220 704 c0 -15 30 -58 103 -144 101 -120 127 -142 127 -106 0 15
-155 207 -192 239 -20 17 -38 22 -38 11z"/>
<path d="M1591 318 c-19 -21 -52 -49 -74 -60 l-40 -20 99 -47 c93 -45 130 -53
121 -27 -3 6 -17 53 -33 103 -16 51 -31 92 -34 92 -3 0 -20 -19 -39 -41z"/>
</g>
</svg>
